<?xml version="1.0" encoding="utf-8"?>
<!-- Generator: Adobe Illustrator 21.1.0, SVG Export Plug-In . SVG Version: 6.00 Build 0)  -->
<svg version="1.1" id="eagle" xmlns="http://www.w3.org/2000/svg" xmlns:xlink="http://www.w3.org/1999/xlink" x="0px" y="0px"
	 viewBox="0 0 500 467.8" style="enable-background:new 0 0 500 467.8;" xml:space="preserve">
<style type="text/css">
	.st0{fill:#000000;}
	.st1{fill:#b7142e;}
</style>
<title>ewu_eagle</title>
<g id="l-leg">
	<path class="st0" d="M144.7,371.9c0,0-32.2,47,0,54l-19.2,13c0,0-13.9-17.4-27.9-17.4c0,0,18.3-17.4,33.1-51.4L144.7,371.9z"/>
</g>
<g id="l-foot">
	<path class="st0" d="M106.4,467.7c0,0,18.3,2.6,18.3-19.2c0,0-13.1-9.6-14.8-8.7c0,0-48.8-38.3-64.4,5.2c0,0-3.5,18.3,11.3,20.9
		c0,0-11.3-25.2,14.8-20.9c0,0,10.4-20.9,30.5,2.6C102,447.6,128.1,459.8,106.4,467.7L106.4,467.7z"/>
</g>
<g id="r-leg">
	<path class="st0" d="M150.8,367.5c0,0,28.7-6.1,51.4,11.3c0,0-3.5-46.1-27.9-41.8C174.3,337,169.9,335.3,150.8,367.5L150.8,367.5z"
		/>
</g>
<g id="r-foot">
	<path class="st0" d="M153.4,374.5c0,0-7.8,6.1-7,13.9c0,0-24.4,20.9,7.8,34c0,0-14.8-25.2,6.1-27.9c0,0,25.3,6.1,25.3,19.2
		c-2.5,2.5-5.1,4.8-7.8,7c0,0,15.7,7.8,23.5-16.5c0,0-20-8.7-18.3-25.3C183,378.9,163.8,372.8,153.4,374.5L153.4,374.5z"/>
</g>
<g id="head">
	<path class="st0" d="M44.5,336.2c0,0-1.8,26.1,20.9,38.3l-2.6-20c0,0,45.3-21.8,67.9,7.8l16.6,0.9c0,0,14.8-33.1,30.5-34.8
		c0,0,20-4.4,32.2,47.9c15,3.3,30.6,0.4,43.5-7.8C253.5,368.4,149,243,44.5,336.2z M76.7,330.1l-15.7,6.1c0,0,5.2-18.3,27.9-17.4
		L76.7,330.1L76.7,330.1z"/>
</g>
<g id="l-wing">
	<path class="st0" d="M113.3,122.8l15.7,3.5c0,0-3.5-38.3,7.8-40.1C136.8,86.2,122,87.1,113.3,122.8L113.3,122.8z"/>
	<path class="st0" d="M93.3,120.2c0,0-2.6-34.8,30.5-53.1c0,0-25.3,34-13.9,54C109.8,121,93.3,120.2,93.3,120.2z"/>
	<path class="st0" d="M67.2,117.6c0,0-10.5-62.7,36.6-81.9c0,0-18.3,27-14.8,37.4l6.1,2.6c0,0-13,31.3-9.5,42.7L67.2,117.6z"/>
	<path class="st0" d="M37.6,115c0,0-22.7-85.3,37.4-115c0,0-24.4,40.9-11.3,54.9c0,0-17.4,41.8-6.1,61L37.6,115L37.6,115z"/>
	<path class="st0" d="M12.3,109.7c0,0-41.8-62.7,28.7-98.4c0,0-9.6,18.3-16.5,20.9c0,0-11.3,61.8,5.2,78.4L12.3,109.7L12.3,109.7z"
		/>
</g>
<g id="r-wing">
	<path class="st0" d="M428.6,94.9c0,0,42.7-35.7,0-79.2c0,0,48.8-5.2,35.7,32.2c0,0,20.9,16.6-5.2,44.4c0,0-5.2,20-30.5,22.6V94.9z"
		/>
	<path class="st0" d="M426,129.8c0,0,61.8-27.9,64.5-88c0,0,17.4,11.3-3.5,35.7c0,0,20,28.7-3.5,47c0,0-20,28.7-57.5,31.4L426,129.8
		L426,129.8z"/>
	<path class="st0" d="M422.5,164.6c0,0,60.1-7.8,77.5-45.3c0,0-14.8,30.5-9.6,36.6c0,0-5.2,22.6-67.9,26.1L422.5,164.6L422.5,164.6z
		"/>
	<path class="st0" d="M419.9,189c0,0,51.4,3.5,76.6-25.2c0,0,2.6,20.9-34.8,41.8c0,0-28.7,7.8-42.7-1.8L419.9,189L419.9,189z"/>
	<path class="st0" d="M416.4,210.8c0,0,19.2,13.1,57.5,7c0,0-29.6,20.9-23.5,23.5c0,0-34.8,0.9-34.8-10.4L416.4,210.8L416.4,210.8z"
		/>
	<path class="st0" d="M413.8,240.4c0,0,3.5,11.3,31.4,8.7c0,0,0,16.5-32.2,7.8L413.8,240.4L413.8,240.4z"/>
</g>
<g id="U">
	<path class="st1" d="M210,387.5c0,0,43.5-5.2,45.3-10.5c0,0,35.7,52.2,54.9,38.3c0,0,11.3-0.9-34.8-46.1c0,0,20.9-6.1,28.7-16.5
		c0,0,16.5,17.4,100.1,37.4c0,0-57.5,46.2-140.2,69.7C264,459.8,248.3,410.2,210,387.5z"/>
</g>
<g id="W">
	<path class="st1" d="M188.2,307.4l50.5-47c0,0,17.4,55.7,36.6,51.4c0,0-0.9-30.5-21.8-68.8c0,0,31.3-56.6,74.9-81.9
		c0,0,2.6,90.6,14.8,74.9c0,0,10.5-34.8,3.5-79.2c0,0,8.7,11.3,69.7-46.2c0,0-20.9,146.3-14.8,163.7c0,0-16.5,10.5-25.3,24.4
		c0,0-13.1,15.7-23.5,18.3c0,0-7.8-23.5-41.8-47.9c0,0,6.1,54,13.1,61.8c0,0-39.2,29.6-57.5,32.2
		C266.6,363.2,225.7,316.2,188.2,307.4L188.2,307.4z"/>
</g>
<g id="E">
	<path class="st1" d="M115.9,290c0,0-35.7-105.4-109.7-171.6l119.3,13.9l38.3,48.8c0,0-51.4-20.9-54.9-1.7s59.2,13.9,59.2,13.9
		l20.9,43.5c0,0-54-9.6-47.9,7s52.3,11.3,52.3,11.3s8.7,30.5,7,35.7L115.9,290L115.9,290z"/>
</g>
</svg>
