<?xml version="1.0" encoding="utf-8"?>
<!-- Generator: Adobe Illustrator 25.2.3, SVG Export Plug-In . SVG Version: 6.00 Build 0)  -->
<svg version="1.1" id="Layer_1" xmlns="http://www.w3.org/2000/svg" xmlns:xlink="http://www.w3.org/1999/xlink" x="0px" y="0px"
	 viewBox="0 0 109.6 76.7" style="enable-background:new 0 0 602.6 76.7;" xml:space="preserve">
<g>
	<g>
		<path class="st0" d="M107.7,71.8c-45.8-3.5-60.9-3.5-106.7,0c-0.2-0.1-1-0.5-1-0.5c2.5-3.6,12.8-23,13.8-26.4c0,0,0.2-0.2,0.4-0.3
			c0.3,0.5,7.8,14.8,8.7,15.7c0.9-0.8,4.8-8.8,5.7-10.8l0.4-0.3c1.1,1.9,6.6,11.6,7,11.6s7.5-12.4,9.3-15.8l0.5-0.3
			c0,0,7.9,14.2,8.4,14.2c0.5,0,8.4-14.2,8.4-14.2s0.2,0.1,0.5,0.2c1.8,3.4,8.7,15.8,9.2,15.8s6-9.7,7.1-11.6l0.4,0.3
			c1,2.2,4.7,10,5.7,10.8c0.9-0.9,7.5-13.2,8.8-15.7l0.4,0.3c1,3.5,9.2,19.1,13.9,26.4C108.7,71.4,107.8,71.8,107.7,71.8L107.7,71.8
			z"/>
		<path class="st0" d="M28.4,39.1c1,0,6.3,7.2,7.2,7.2c1,0,16.2-18.6,18.8-18.6s17.8,18.6,18.8,18.6c0.9,0,6.3-7.2,7.2-7.2
				c1,0,6.3,6.6,6.3,6.6c1.3-2.8,2.5-7.6,2.5-11.5C89.2,15.1,73.6,0,54.4,0S19.6,15.2,19.6,34.2c0,4,1.3,8.7,2.6,11.5
				C22.1,45.7,27.4,39.1,28.4,39.1L28.4,39.1z"/>
	</g>
</g>
</svg>
